HIERARCHY
ROOT joint_Root
{
	OFFSET 0.0 0.0 0.0
	CHANNELS 6 Xposition Yposition Zposition Zrotation Xrotation Yrotation 
	JOINT Hips
	{
		OFFSET 4.5925 91.4895 -427.239
		CHANNELS 6 Xposition Yposition Zposition Zrotation Xrotation Yrotation 
		JOINT Spine
		{
			OFFSET 15.7357 0.0 0.0
			CHANNELS 6 Xposition Yposition Zposition Zrotation Xrotation Yrotation 
			JOINT Chest
			{
				OFFSET 8.98455 -0.406207 0.0
				CHANNELS 6 Xposition Yposition Zposition Zrotation Xrotation Yrotation 
				JOINT Neck
				{
					OFFSET 16.3773 0.0 0.0
					CHANNELS 6 Xposition Yposition Zposition Zrotation Xrotation Yrotation 
					JOINT Head
					{
						OFFSET 6.45672 0.0 0.0
						CHANNELS 6 Xposition Yposition Zposition Zrotation Xrotation Yrotation 
						End Site
						{
							OFFSET 0.0 0.0 0.0
						}
					}
				}
				JOINT Shoulder_L
				{
					OFFSET 12.9942 -0.242716 4.98039
					CHANNELS 6 Xposition Yposition Zposition Zrotation Xrotation Yrotation 
					JOINT UpperArm_L
					{
						OFFSET 5.34809 0.0 0.0
						CHANNELS 6 Xposition Yposition Zposition Zrotation Xrotation Yrotation 
						JOINT LowerArm_L
						{
							OFFSET 24.3286 1.87007e-05 0.0
							CHANNELS 6 Xposition Yposition Zposition Zrotation Xrotation Yrotation 
							JOINT Hand_L
							{
								OFFSET 22.2916 0.0 0.0
								CHANNELS 6 Xposition Yposition Zposition Zrotation Xrotation Yrotation 
								End Site
								{
									OFFSET 0.0 0.0 0.0
								}
							}
						}
					}
				}
				JOINT Shoulder_R
				{
					OFFSET 12.9945 -0.242716 -4.98039
					CHANNELS 6 Xposition Yposition Zposition Zrotation Xrotation Yrotation 
					JOINT UpperArm_R
					{
						OFFSET -5.34813 0.0 0.0
						CHANNELS 6 Xposition Yposition Zposition Zrotation Xrotation Yrotation 
						JOINT LowerArm_R
						{
							OFFSET -24.3289 0.000322201 0.0
							CHANNELS 6 Xposition Yposition Zposition Zrotation Xrotation Yrotation 
							JOINT Hand_R
							{
								OFFSET -22.2915 -0.000108084 0.0
								CHANNELS 6 Xposition Yposition Zposition Zrotation Xrotation Yrotation 
								End Site
								{
									OFFSET 0.0 0.0 0.0
								}
							}
						}
					}
				}
			}
		}
		JOINT UpperLeg_L
		{
			OFFSET -2.19248 -6.46944 0.0
			CHANNELS 6 Xposition Yposition Zposition Zrotation Xrotation Yrotation 
			JOINT LowerLeg_L
			{
				OFFSET 39.0811 0.0 -1.23785e-05
				CHANNELS 6 Xposition Yposition Zposition Zrotation Xrotation Yrotation 
				JOINT Foot_L
				{
					OFFSET 40.9854 0.0 -1.26872e-05
					CHANNELS 6 Xposition Yposition Zposition Zrotation Xrotation Yrotation 
					JOINT Toes_L
					{
						OFFSET 11.7543 0.0 0.0
						CHANNELS 6 Xposition Yposition Zposition Zrotation Xrotation Yrotation 
						End Site
						{
							OFFSET 0.0 0.0 0.0
						}
					}
				}
			}
		}
		JOINT UpperLeg_R
		{
			OFFSET -2.19251 6.46944 0.0
			CHANNELS 6 Xposition Yposition Zposition Zrotation Xrotation Yrotation 
			JOINT LowerLeg_R
			{
				OFFSET -39.0811 -0.00228153 -0.0401928
				CHANNELS 6 Xposition Yposition Zposition Zrotation Xrotation Yrotation 
				JOINT Foot_R
				{
					OFFSET -40.9854 0.0 0.0
					CHANNELS 6 Xposition Yposition Zposition Zrotation Xrotation Yrotation 
					JOINT Toes_R
					{
						OFFSET -11.7543 0.0 0.0
						CHANNELS 6 Xposition Yposition Zposition Zrotation Xrotation Yrotation 
						End Site
						{
							OFFSET 0.0 0.0 0.0
						}
					}
				}
			}
		}
	}
}
MOTION
Frames:	9
Frame Time:	0.0333333
0.000000 0.000000 0.000000 0.000000 0.000000 -0.000000 -2.368930 80.194200 -0.480982 87.162300 -1.433630 13.690000 15.735700 0.000005 -0.000001 89.608100 76.916300 -89.355100 8.984550 -0.406207 -0.000000 18.401300 -0.152188 0.531831 16.377300 -0.000001 -0.000001 -5.270830 -3.598400 1.221980 6.456720 -0.000001 -0.000000 -11.853900 -3.799440 4.089580 12.994200 -0.242716 4.980390 -91.248200 4.007390 -72.682100 5.348090 -0.000007 -0.000001 -73.288700 3.921980 -19.359400 24.328600 0.000019 0.000005 1.070630 5.113710 -11.844700 22.291600 -0.000001 0.000005 9.308620 4.868250 10.023000 12.994500 -0.242716 -4.980390 88.269100 9.083240 -79.162800 -5.348130 -0.000001 -0.000004 -70.065200 1.403080 -21.954600 -24.328900 0.000322 -0.000009 -1.872240 -20.590600 -5.301840 -22.291500 -0.000108 -0.000004 13.555200 5.141440 4.183750 -2.192480 -6.469440 -0.000000 -172.698000 -3.535470 -15.909100 39.081100 -0.000007 -0.000012 -0.818468 0.330307 68.024400 40.985400 -0.000006 -0.000013 -3.182210 -0.773654 -88.482100 11.754300 -0.000000 0.000003 -0.000554 -0.004335 -16.735300 -2.192510 6.469440 -0.000001 -179.594000 12.102200 165.076000 -39.081100 -0.002282 -0.040193 0.104269 -0.042675 67.119900 -40.985400 0.000008 0.000006 8.013870 0.923337 -88.222400 -11.754300 -0.000006 -0.000006 -0.688856 -0.848454 -16.867000
0.000000 0.000000 0.000000 0.000000 0.000000 -0.000000 -2.306450 82.628300 0.771488 87.695900 -1.899180 13.129100 15.735700 0.000005 -0.000001 89.825700 78.546000 -89.767900 8.984550 -0.406207 -0.000000 15.141900 -0.065053 0.124403 16.377300 -0.000001 -0.000001 -4.045980 -2.553170 1.216320 6.456720 -0.000001 -0.000000 -10.925600 -2.047730 3.552570 12.994200 -0.242716 4.980390 -90.955600 2.798770 -71.134700 5.348090 -0.000007 -0.000001 -68.166800 -8.384170 -18.410000 24.328600 0.000019 0.000005 1.653690 9.290720 -10.141800 22.291600 -0.000001 0.000005 10.883400 4.762400 11.996000 12.994500 -0.242716 -4.980390 88.242400 7.772330 -77.214000 -5.348130 -0.000001 -0.000004 -65.866300 -9.841680 -22.939300 -24.328900 0.000322 -0.000009 -0.696444 -16.518100 -2.442050 -22.291500 -0.000108 -0.000004 12.030600 5.090750 5.325590 -2.192480 -6.469440 -0.000000 -173.240000 -4.249000 -11.941800 39.081100 -0.000007 -0.000012 -0.692493 0.382905 61.061800 40.985400 -0.000006 -0.000013 -3.039130 -0.807820 -85.995100 11.754300 -0.000000 0.000003 -0.000513 -0.004071 -16.726200 -2.192510 6.469440 -0.000001 179.890000 11.145800 168.681000 -39.081100 -0.002282 -0.040193 0.086108 -0.046911 60.498800 -40.985400 0.000008 0.000006 7.514700 1.299100 -85.602700 -11.754300 -0.000006 -0.000006 -0.622978 -0.765325 -17.083400
0.000000 0.000000 0.000000 0.000000 0.000000 -0.000000 -2.193230 85.537500 1.993740 88.156600 -1.700720 12.093600 15.735700 0.000005 -0.000001 88.767100 80.585000 -88.915300 8.984550 -0.406207 -0.000000 11.059200 -0.406341 -0.256789 16.377300 -0.000001 -0.000001 -1.645710 -1.742470 1.193530 6.456720 -0.000001 -0.000000 -9.745610 -0.967953 3.363470 12.994200 -0.242716 4.980390 -90.202700 0.564711 -70.233000 5.348090 -0.000007 -0.000001 -62.101000 -24.923500 -20.187800 24.328600 0.000019 0.000005 1.531950 10.625900 -8.252150 22.291600 -0.000001 0.000005 15.369900 4.613760 14.664900 12.994500 -0.242716 -4.980390 88.447300 6.106600 -75.702400 -5.348130 -0.000001 -0.000004 -58.114500 -17.932800 -26.260600 -24.328900 0.000322 -0.000009 -0.372664 -14.565900 -1.477340 -22.291500 -0.000108 -0.000004 13.004700 5.094360 5.242840 -2.192480 -6.469440 -0.000000 -173.545000 -5.577000 -7.502020 39.081100 -0.000007 -0.000012 -0.525522 0.413536 51.801900 40.985400 -0.000006 -0.000013 -2.331360 0.196499 -82.146900 11.754300 -0.000000 0.000003 -0.000367 -0.003081 -16.691500 -2.192510 6.469440 -0.000001 179.211000 11.237800 172.848000 -39.081100 -0.002282 -0.040193 0.068539 -0.051604 51.681700 -40.985400 0.000008 0.000006 7.090150 2.249080 -81.615600 -11.754300 -0.000006 -0.000006 -0.543965 -0.667644 -17.555800
0.000000 0.000000 0.000000 0.000000 0.000000 -0.000000 -1.966240 88.062700 2.788390 88.817700 -1.274780 9.190380 15.735700 0.000005 -0.000001 86.855800 83.422800 -87.287800 8.984550 -0.406207 -0.000000 5.366270 -0.710843 -0.829606 16.377300 -0.000001 -0.000001 1.840380 -1.611540 1.261570 6.456720 -0.000001 -0.000000 -8.173570 -1.396750 3.450300 12.994200 -0.242716 4.980390 -89.095800 -2.406810 -69.408000 5.348090 -0.000007 -0.000001 -57.518300 -40.696300 -27.037700 24.328600 0.000019 0.000005 1.435640 10.788200 -7.625770 22.291600 -0.000001 0.000005 17.017800 4.578520 15.282900 12.994500 -0.242716 -4.980390 88.939500 3.884010 -74.712500 -5.348130 -0.000001 -0.000004 -50.554300 -27.305600 -32.121700 -24.328900 0.000322 -0.000009 -0.539638 -15.503200 -2.012630 -22.291500 -0.000108 -0.000004 11.886800 5.111960 4.836190 -2.192480 -6.469440 -0.000000 -174.345000 -7.270360 -5.300920 39.081100 -0.000007 -0.000012 -0.357860 0.391982 42.395300 40.985400 -0.000006 -0.000013 -1.558990 1.604790 -77.806000 11.754300 -0.000000 0.000003 -0.000269 -0.002372 -16.666300 -2.192510 6.469440 -0.000001 178.352000 12.600500 174.673000 -39.081100 -0.002282 -0.040193 0.047434 -0.047263 43.058400 -40.985400 0.000008 0.000006 6.703650 4.272710 -77.314300 -11.754300 -0.000006 -0.000006 -0.534783 -0.656422 -18.057800
0.000000 0.000000 0.000000 0.000000 0.000000 -0.000000 -1.673390 89.714400 3.396150 89.097800 -0.649562 6.319650 15.735700 0.000005 -0.000001 84.361400 85.878900 -84.787500 8.984550 -0.406207 -0.000000 0.433613 -0.782326 -0.848630 16.377300 -0.000001 -0.000001 4.300490 -2.194470 1.134140 6.456720 -0.000001 -0.000000 -6.526950 -2.762490 3.837720 12.994200 -0.242716 4.980390 -88.065700 -4.917010 -68.497000 5.348090 -0.000007 -0.000001 -55.122000 -49.305700 -39.716500 24.328600 0.000019 0.000005 1.972900 11.393900 -9.891970 22.291600 -0.000001 0.000005 14.758900 4.715870 12.836700 12.994500 -0.242716 -4.980390 89.932100 0.246854 -74.689300 -5.348130 -0.000001 -0.000004 -44.052700 -36.637000 -39.534500 -24.328900 0.000322 -0.000009 -2.029600 -20.049000 -5.890010 -22.291500 -0.000108 -0.000004 10.716500 5.161600 3.664340 -2.192480 -6.469440 -0.000000 -174.893000 -8.759300 -4.210150 39.081100 -0.000007 -0.000012 -0.260804 0.371808 35.048100 40.985400 -0.000006 -0.000013 -0.929170 3.180610 -74.418200 11.754300 -0.000000 0.000003 -0.000189 -0.001763 -16.644200 -2.192510 6.469440 -0.000001 177.844000 14.857000 175.685000 -39.081100 -0.002282 -0.040193 0.032559 -0.040083 36.138900 -40.985400 0.000008 0.000006 6.510920 6.590220 -74.174300 -11.754300 -0.000006 -0.000006 -0.281441 -0.362894 -18.431900
0.000000 0.000000 0.000000 0.000000 0.000000 -0.000000 -1.466580 90.577300 3.776780 89.249500 0.017345 4.376170 15.735700 0.000005 -0.000001 83.637100 87.541900 -84.077800 8.984550 -0.406207 -0.000000 -2.881970 -0.503695 -0.893974 16.377300 -0.000001 -0.000001 5.231080 -2.964020 1.222510 6.456720 -0.000001 -0.000000 -5.564080 -4.451830 4.364780 12.994200 -0.242716 4.980390 -86.690600 -8.270480 -68.101300 5.348090 -0.000007 -0.000001 -47.565800 -50.637300 -48.174100 24.328600 0.000019 0.000005 3.166050 10.367600 -17.095100 22.291600 -0.000001 0.000005 11.506700 4.927810 8.807480 12.994500 -0.242716 -4.980390 91.209200 -4.447170 -74.774000 -5.348130 -0.000001 -0.000004 -37.985300 -44.609400 -45.538000 -24.328900 0.000322 -0.000009 -6.947020 -25.261800 -15.917800 -22.291500 -0.000108 -0.000004 12.199700 5.257600 1.247510 -2.192480 -6.469440 -0.000000 -175.294000 -9.507010 -3.737500 39.081100 -0.000007 -0.000012 -0.203855 0.345883 30.514400 40.985400 -0.000006 -0.000013 -0.573935 4.420850 -72.334500 11.754300 -0.000000 0.000003 -0.000140 -0.001374 -16.629900 -2.192510 6.469440 -0.000001 177.596000 16.874700 176.380000 -39.081100 -0.002282 -0.040193 0.023866 -0.033440 31.593900 -40.985400 0.000008 0.000006 6.492340 8.274690 -72.576700 -11.754300 -0.000006 -0.000006 -0.041778 -0.087605 -18.357400
0.000000 0.000000 0.000000 0.000000 0.000000 -0.000000 -1.285190 90.936000 4.067560 89.233600 0.838081 3.295760 15.735700 0.000005 -0.000001 89.205400 88.448100 -89.619300 8.984550 -0.406207 -0.000000 -4.662440 0.001863 -0.828249 16.377300 -0.000001 -0.000001 4.599870 -3.926580 1.316700 6.456720 -0.000001 -0.000000 -5.874010 -6.385960 4.779880 12.994200 -0.242716 4.980390 -84.990400 -12.157600 -67.402800 5.348090 -0.000007 -0.000001 -36.574000 -51.708600 -51.654000 24.328600 0.000019 0.000005 5.484970 9.523850 -30.099200 22.291600 -0.000001 0.000005 13.957800 5.025300 6.782570 12.994500 -0.242716 -4.980390 92.702200 -9.025250 -73.260200 -5.348130 -0.000001 -0.000004 -30.705000 -51.733200 -49.543700 -24.328900 0.000322 -0.000009 -13.166200 -23.461500 -30.450700 -22.291500 -0.000108 -0.000004 15.508400 5.384220 -2.391510 -2.192480 -6.469440 -0.000000 -175.618000 -8.813030 -3.739030 39.081100 -0.000007 -0.000012 -0.183798 0.339299 28.444600 40.985400 -0.000006 -0.000013 -0.514356 4.495810 -71.436200 11.754300 -0.000000 0.000003 -0.000131 -0.001294 -16.626900 -2.192510 6.469440 -0.000001 177.580000 18.135200 177.003000 -39.081100 -0.002282 -0.040193 0.019818 -0.029905 28.907900 -40.985400 0.000008 0.000006 6.355890 8.873500 -72.094200 -11.754300 -0.000006 -0.000006 -0.003511 -0.046258 -18.454500
0.000000 0.000000 0.000000 0.000000 0.000000 -0.000000 -1.115680 91.065700 4.204680 89.280900 1.986480 3.058910 15.735700 0.000005 -0.000001 91.890700 88.626200 -92.312900 8.984550 -0.406207 -0.000000 -5.019370 0.137624 -0.839055 16.377300 -0.000001 -0.000001 3.013090 -4.694320 1.690270 6.456720 -0.000001 -0.000000 -6.921750 -7.594580 4.815860 12.994200 -0.242716 4.980390 -83.305700 -14.705900 -65.188900 5.348090 -0.000007 -0.000001 -32.253700 -57.440800 -60.243700 24.328600 0.000019 0.000005 14.413600 14.078500 -46.532300 22.291600 -0.000001 0.000005 18.008600 5.047610 6.296530 12.994500 -0.242716 -4.980390 94.353300 -12.569800 -70.724500 -5.348130 -0.000001 -0.000004 -26.526500 -60.420800 -56.007500 -24.328900 0.000322 -0.000009 -9.584130 -10.394800 -43.188800 -22.291500 -0.000108 -0.000004 21.437700 5.490770 -6.057630 -2.192480 -6.469440 -0.000000 -175.962000 -7.359340 -3.677500 39.081100 -0.000007 -0.000012 -0.179746 0.342698 27.677400 40.985400 -0.000006 -0.000013 -0.498323 4.143200 -71.082700 11.754300 -0.000000 0.000003 -0.000149 -0.001448 -16.632600 -2.192510 6.469440 -0.000001 177.367000 19.167000 177.751000 -39.081100 -0.002282 -0.040193 0.018181 -0.028516 27.547100 -40.985400 0.000008 0.000006 6.229830 8.884230 -72.069600 -11.754300 -0.000006 -0.000006 -0.003139 -0.042162 -18.287800
0.000000 0.000000 0.000000 0.000000 0.000000 -0.000000 -1.013370 91.207000 4.264390 89.379600 3.071180 2.746610 15.735700 0.000005 -0.000001 89.172000 88.775000 -89.671000 8.984550 -0.406207 -0.000000 -5.316080 0.021579 -0.997995 16.377300 -0.000001 -0.000001 1.969290 -5.082490 2.103200 6.456720 -0.000001 -0.000000 -7.658690 -8.024010 5.090490 12.994200 -0.242716 4.980390 -81.422400 -16.754800 -62.381700 5.348090 -0.000007 -0.000001 -38.426000 -63.574900 -76.053400 24.328600 0.000019 0.000005 21.594800 12.862400 -60.650000 22.291600 -0.000001 0.000005 23.392500 5.211920 2.531560 12.994500 -0.242716 -4.980390 96.025900 -15.159600 -68.019700 -5.348130 -0.000001 -0.000004 -33.952300 -67.700600 -71.215200 -24.328900 0.000322 -0.000009 -8.130160 -5.390370 -56.629400 -22.291500 -0.000108 -0.000004 28.066600 5.630850 -12.877500 -2.192480 -6.469440 -0.000000 -176.122000 -7.004920 -3.680190 39.081100 -0.000007 -0.000012 -0.175656 0.347190 26.836800 40.985400 -0.000006 -0.000013 -0.302492 4.779570 -70.610400 11.754300 -0.000000 0.000003 -0.000156 -0.001499 -16.634500 -2.192510 6.469440 -0.000001 177.192000 20.209500 178.030000 -39.081100 -0.002282 -0.040193 0.017773 -0.028764 26.697100 -40.985400 0.000008 0.000006 6.150880 8.960180 -71.684700 -11.754300 -0.000006 -0.000006 -0.003195 -0.042785 -18.313100
